<svg xmlns="http://www.w3.org/2000/svg" fill="none" viewBox="2.5 5.33 23 18.33">
<path d="M4.08301 12.1665H23.9163" stroke="white" stroke-width="2" stroke-linecap="round"/>
<path d="M7 16.8335H9.33333" stroke="white" stroke-width="2" stroke-linecap="round"/>
<path d="M12.833 16.8335H15.1663" stroke="white" stroke-width="2" stroke-linecap="round"/>
<path d="M3.5 11.0002C3.5 8.80027 3.5 7.70033 4.18342 7.01692C4.86683 6.3335 5.96678 6.3335 8.16667 6.3335H14H19.8333C22.0332 6.3335 23.1331 6.3335 23.8166 7.01692C24.5 7.70033 24.5 8.80027 24.5 11.0002V14.5002V18.0002C24.5 20.2 24.5 21.3 23.8166 21.9834C23.1331 22.6668 22.0332 22.6668 19.8333 22.6668H14H8.16667C5.96678 22.6668 4.86683 22.6668 4.18342 21.9834C3.5 21.3 3.5 20.2 3.5 18.0002V14.5002V11.0002Z" stroke="white" stroke-width="2" stroke-linejoin="round"/>
</svg>