<svg xmlns="http://www.w3.org/2000/svg" fill="none" viewBox="1.33 3 21.83 22.75">
<path d="M2.33301 4L2.64207 4.10302C4.18212 4.61637 4.95214 4.87304 5.39257 5.48412C5.83301 6.09518 5.83301 6.90685 5.83301 8.53021V11.5833C5.83301 14.8831 5.83301 16.533 6.85814 17.5582C7.88326 18.5833 9.53317 18.5833 12.833 18.5833H22.1663" stroke="url(#paint0_linear_2080_1164)" stroke-width="2" stroke-linecap="round"/>
<path d="M8.75 21.5C9.7165 21.5 10.5 22.2835 10.5 23.25C10.5 24.2165 9.7165 25 8.75 25C7.7835 25 7 24.2165 7 23.25C7 22.2835 7.7835 21.5 8.75 21.5Z" stroke="url(#paint1_linear_2080_1164)" stroke-width="1.5"/>
<path d="M19.25 21.5C20.2165 21.5 21 22.2834 21 23.25C21 24.2165 20.2165 25 19.25 25C18.2835 25 17.5 24.2165 17.5 23.25C17.5 22.2834 18.2835 21.5 19.25 21.5Z" stroke="url(#paint2_linear_2080_1164)" stroke-width="1.5"/>
<path d="M9.91699 6.9585C9.91699 6.1431 9.91699 5.7354 10.0502 5.4138C10.2278 4.985 10.5685 4.64432 10.9973 4.46671C11.3189 4.3335 11.7266 4.3335 12.542 4.3335H17.792C18.6074 4.3335 19.0151 4.3335 19.3367 4.46671C19.7655 4.64432 20.1062 4.985 20.2838 5.4138C20.417 5.7354 20.417 6.1431 20.417 6.9585V7.396C20.417 7.63762 20.2211 7.8335 19.9795 7.8335H19.8337C19.1893 7.8335 18.667 8.35581 18.667 9.00016C18.667 9.64451 19.1893 10.1668 19.8337 10.1668H19.9795C20.2211 10.1668 20.417 10.3627 20.417 10.6043V11.0418C20.417 11.8572 20.417 12.2649 20.2838 12.5866C20.1062 13.0153 19.7655 13.356 19.3367 13.5336C19.0151 13.6668 18.6074 13.6668 17.792 13.6668H12.542C11.7266 13.6668 11.3189 13.6668 10.9973 13.5336C10.5685 13.356 10.2278 13.0153 10.0502 12.5866C9.91699 12.2649 9.91699 11.8572 9.91699 11.0418V10.6043C9.91699 10.3627 10.1129 10.1668 10.3545 10.1668H10.5003C11.1447 10.1668 11.667 9.64451 11.667 9.00016C11.667 8.35581 11.1447 7.8335 10.5003 7.8335H10.3545C10.1129 7.8335 9.91699 7.63762 9.91699 7.396V6.9585Z" stroke="url(#paint3_linear_2080_1164)" stroke-width="1.5"/>
<path d="M14.9081 8.23513C15.0062 7.98144 15.0553 7.85456 15.1349 7.83694C15.1558 7.83235 15.1775 7.83235 15.1985 7.83694C15.2781 7.85456 15.3271 7.98144 15.4252 8.23513C15.481 8.37944 15.5089 8.4516 15.5611 8.50066C15.5757 8.51443 15.5916 8.52668 15.6085 8.53729C15.6688 8.57498 15.7441 8.58198 15.8947 8.59598C16.1496 8.61966 16.277 8.6315 16.316 8.70693C16.324 8.72256 16.3295 8.73948 16.3322 8.75698C16.3451 8.84144 16.2514 8.92994 16.064 9.10686L16.0119 9.15598C15.9244 9.23869 15.8806 9.28005 15.8552 9.33168C15.84 9.36259 15.8298 9.39596 15.825 9.43038C15.8171 9.48772 15.8299 9.54769 15.8555 9.66768L15.8647 9.71055C15.9107 9.92574 15.9338 10.0334 15.905 10.0862C15.8792 10.1338 15.8317 10.1642 15.7792 10.1668C15.7208 10.1696 15.6385 10.1 15.4738 9.9608C15.3654 9.86904 15.3111 9.82319 15.2508 9.80529C15.1958 9.78889 15.1375 9.78889 15.0825 9.80529C15.0222 9.82319 14.968 9.86904 14.8595 9.9608C14.6949 10.1 14.6126 10.1696 14.5541 10.1668C14.5016 10.1642 14.4541 10.1338 14.4283 10.0862C14.3996 10.0334 14.4226 9.92574 14.4686 9.71055L14.4778 9.66768C14.5034 9.54769 14.5163 9.48772 14.5083 9.43038C14.5035 9.39596 14.4933 9.36259 14.4782 9.33168C14.4528 9.28005 14.409 9.23869 14.3214 9.15598L14.2693 9.10686C14.082 8.92994 13.9883 8.84144 14.0012 8.75698C14.0039 8.73948 14.0093 8.72256 14.0174 8.70693C14.0563 8.6315 14.1838 8.61966 14.4387 8.59598C14.5892 8.58198 14.6645 8.57498 14.7249 8.53729C14.7418 8.52668 14.7576 8.51443 14.7723 8.50066C14.8244 8.4516 14.8523 8.37944 14.9081 8.23513Z" fill="url(#paint4_linear_2080_1164)" stroke="url(#paint5_linear_2080_1164)"/>
<defs>
<linearGradient id="paint0_linear_2080_1164" x1="2.33301" y1="11.2917" x2="22.1663" y2="11.2917" gradientUnits="userSpaceOnUse">
<stop stop-color="#8E398D"/>
<stop offset="1" stop-color="#AC2D78"/>
</linearGradient>
<linearGradient id="paint1_linear_2080_1164" x1="7" y1="23.25" x2="10.5" y2="23.25" gradientUnits="userSpaceOnUse">
<stop stop-color="#8E398D"/>
<stop offset="1" stop-color="#AC2D78"/>
</linearGradient>
<linearGradient id="paint2_linear_2080_1164" x1="17.5" y1="23.25" x2="21" y2="23.25" gradientUnits="userSpaceOnUse">
<stop stop-color="#8E398D"/>
<stop offset="1" stop-color="#AC2D78"/>
</linearGradient>
<linearGradient id="paint3_linear_2080_1164" x1="9.91699" y1="9.00016" x2="20.417" y2="9.00016" gradientUnits="userSpaceOnUse">
<stop stop-color="#8E398D"/>
<stop offset="1" stop-color="#AC2D78"/>
</linearGradient>
<linearGradient id="paint4_linear_2080_1164" x1="14" y1="9.00018" x2="16.3333" y2="9.00018" gradientUnits="userSpaceOnUse">
<stop stop-color="#8E398D"/>
<stop offset="1" stop-color="#AC2D78"/>
</linearGradient>
<linearGradient id="paint5_linear_2080_1164" x1="14" y1="9.00018" x2="16.3333" y2="9.00018" gradientUnits="userSpaceOnUse">
<stop stop-color="#8E398D"/>
<stop offset="1" stop-color="#AC2D78"/>
</linearGradient>
</defs>
</svg>