<svg xmlns="http://www.w3.org/2000/svg" fill="none" viewBox="0.5 0.17 23 20.67">
<path d="M1.5 6.41699C1.5 4.7862 1.5 3.9708 1.76642 3.3276C2.12165 2.47001 2.80302 1.78864 3.66061 1.43341C4.3038 1.16699 5.11921 1.16699 6.75 1.16699H17.25C18.8808 1.16699 19.6961 1.16699 20.3394 1.43341C21.1969 1.78864 21.8784 2.47001 22.2335 3.3276C22.5 3.9708 22.5 4.7862 22.5 6.41699V7.29199C22.5 7.77524 22.1082 8.16699 21.625 8.16699H21.3333C20.0446 8.16699 19 9.21163 19 10.5003C19 11.789 20.0446 12.8337 21.3333 12.8337H21.625C22.1082 12.8337 22.5 13.2254 22.5 13.7087V14.5837C22.5 16.2144 22.5 17.0298 22.2335 17.6731C21.8784 18.5306 21.1969 19.2121 20.3394 19.5672C19.6961 19.8337 18.8808 19.8337 17.25 19.8337H6.75C5.11921 19.8337 4.3038 19.8337 3.66061 19.5672C2.80302 19.2121 2.12165 18.5306 1.76642 17.6731C1.5 17.0298 1.5 16.2144 1.5 14.5837V13.7087C1.5 13.2254 1.89175 12.8337 2.375 12.8337H2.66667C3.95533 12.8337 5 11.789 5 10.5003C5 9.21163 3.95533 8.16699 2.66667 8.16699H2.375C1.89175 8.16699 1.5 7.77524 1.5 7.29199V6.41699Z" stroke="url(#paint0_linear_2045_8193)" stroke-width="2"/>
<defs>
<linearGradient id="paint0_linear_2045_8193" x1="1.5" y1="10.5003" x2="22.5" y2="10.5003" gradientUnits="userSpaceOnUse">
<stop stop-color="#8E398D"/>
<stop offset="1" stop-color="#AC2D78"/>
</linearGradient>
</defs>
</svg>