<svg width="24" height="23" viewBox="0 0 24 23" fill="none" xmlns="http://www.w3.org/2000/svg">
<mask id="path-1-inside-1_2080_1101" fill="white">
<path fill-rule="evenodd" clip-rule="evenodd" d="M3.92513 3.40201C8.35302 -1.01963 15.551 -0.972616 20.0059 3.48236C24.4628 7.93925 24.5079 15.1415 20.0806 19.5688C15.6531 23.9962 8.45092 23.9511 3.99403 19.4942C1.35287 16.8531 0.262213 13.2498 0.730548 9.83301C0.796173 9.35421 1.2375 9.01935 1.71626 9.08497C2.19504 9.1506 2.52996 9.59186 2.46434 10.0707C2.0677 12.9643 2.99079 16.0161 5.23147 18.2568C9.01669 22.0421 15.1108 22.0636 18.8431 18.3314C22.5754 14.5991 22.5537 8.50502 18.7684 4.7198C14.9851 0.936494 8.89537 0.912903 5.16257 4.63945L6.03489 4.64383C6.51814 4.64626 6.90791 5.03998 6.90548 5.52322C6.90305 6.00646 6.50934 6.39624 6.02609 6.39381L3.05629 6.37889C2.57647 6.37647 2.18811 5.9881 2.1857 5.5083L2.17077 2.53848C2.16834 2.05525 2.55812 1.66153 3.04136 1.65909C3.52461 1.65667 3.91832 2.04645 3.92075 2.52969L3.92513 3.40201ZM11.9999 5.94652C12.4831 5.94652 12.8749 6.33828 12.8749 6.82152V11.1258L15.5352 13.7861C15.8769 14.1279 15.8769 14.6819 15.5352 15.0235C15.1935 15.3652 14.6395 15.3652 14.2979 15.0235L11.1249 11.8506V6.82152C11.1249 6.33828 11.5166 5.94652 11.9999 5.94652Z"/>
</mask>
<path d="M3.92513 3.40201L1.92515 3.41204L1.94917 8.2016L5.33834 4.81722L3.92513 3.40201ZM20.0059 3.48236L18.5917 4.89656L18.5917 4.89657L20.0059 3.48236ZM20.0806 19.5688L21.4948 20.9831L21.4948 20.9831L20.0806 19.5688ZM3.99403 19.4942L5.40824 18.08L5.40823 18.08L3.99403 19.4942ZM0.730548 9.83301L2.71202 10.1046L2.71202 10.1046L0.730548 9.83301ZM1.71626 9.08497L1.44466 11.0664L1.44467 11.0664L1.71626 9.08497ZM2.46434 10.0707L4.44581 10.3423L4.44582 10.3422L2.46434 10.0707ZM5.23147 18.2568L3.81724 19.671L3.81725 19.671L5.23147 18.2568ZM18.7684 4.7198L17.3542 6.134L17.3542 6.13401L18.7684 4.7198ZM5.16257 4.63945L3.74955 3.22405L0.352619 6.61528L5.15252 6.63942L5.16257 4.63945ZM6.03489 4.64383L6.02483 6.64381H6.02485L6.03489 4.64383ZM6.02609 6.39381L6.01605 8.39378H6.01605L6.02609 6.39381ZM3.05629 6.37889L3.04622 8.37886H3.04624L3.05629 6.37889ZM2.1857 5.5083L0.185721 5.51835L0.185721 5.51836L2.1857 5.5083ZM2.17077 2.53848L4.17075 2.52843L4.17075 2.52839L2.17077 2.53848ZM3.04136 1.65909L3.03132 -0.340883L3.03127 -0.340883L3.04136 1.65909ZM3.92075 2.52969L5.92073 2.51966V2.51965L3.92075 2.52969ZM12.8749 11.1258H10.8749V11.9542L11.4607 12.54L12.8749 11.1258ZM15.5352 15.0235L14.1213 13.6091L14.121 13.6093L15.5352 15.0235ZM14.2979 15.0235L15.7123 13.6095L15.7121 13.6093L14.2979 15.0235ZM11.1249 11.8506H9.12488V12.6791L9.71069 13.2649L11.1249 11.8506ZM5.33834 4.81722C8.97141 1.18928 14.9037 1.20859 18.5917 4.89656L21.4201 2.06815C16.1982 -3.15382 7.73463 -3.22855 2.51191 1.9868L5.33834 4.81722ZM18.5917 4.89657C22.2813 8.58617 22.299 14.522 18.6664 18.1546L21.4948 20.9831C26.7169 15.7609 26.6443 7.29233 21.4201 2.06814L18.5917 4.89657ZM18.6664 18.1546C15.0336 21.7873 9.09783 21.7696 5.40824 18.08L2.57981 20.9084C7.80401 26.1326 16.2725 26.2052 21.4948 20.9831L18.6664 18.1546ZM5.40823 18.08C3.22489 15.8967 2.32561 12.9237 2.71202 10.1046L-1.25093 9.56142C-1.80118 13.5759 -0.519151 17.8095 2.57983 20.9084L5.40823 18.08ZM2.71202 10.1046C2.62763 10.7203 2.06009 11.1508 1.44466 11.0664L1.98787 7.1035C0.414907 6.88789 -1.03529 7.98813 -1.25093 9.56143L2.71202 10.1046ZM1.44467 11.0664C0.829172 10.9821 0.398507 10.4147 0.482861 9.79913L4.44582 10.3422C4.66141 8.76904 3.56091 7.31911 1.98786 7.1035L1.44467 11.0664ZM0.482871 9.79906C0.00425631 13.2908 1.11899 16.9727 3.81724 19.671L6.64569 16.8426C4.86258 15.0595 4.13114 12.6379 4.44581 10.3423L0.482871 9.79906ZM3.81725 19.671C8.37049 24.2243 15.731 24.2719 20.2573 19.7456L17.4289 16.9172C14.4906 19.8554 9.6629 19.8598 6.64568 16.8426L3.81725 19.671ZM20.2573 19.7456C24.7836 15.2192 24.7359 7.85878 20.1826 3.30558L17.3542 6.13401C20.3715 9.15126 20.3671 13.9789 17.4289 16.9172L20.2573 19.7456ZM20.1826 3.30559C15.6318 -1.24533 8.27651 -1.29533 3.74955 3.22405L6.5756 6.05485C9.51423 3.12114 14.3385 3.11832 17.3542 6.134L20.1826 3.30559ZM5.15252 6.63942L6.02483 6.64381L6.04495 2.64386L5.17263 2.63947L5.15252 6.63942ZM6.02485 6.64381C5.40351 6.64069 4.90239 6.13446 4.90551 5.51318L8.90546 5.53326C8.91343 3.94549 7.63276 2.65183 6.04493 2.64386L6.02485 6.64381ZM4.90551 5.51318C4.90863 4.89184 5.41485 4.39072 6.03614 4.39384L6.01605 8.39378C7.60382 8.40176 8.89748 7.12109 8.90546 5.53326L4.90551 5.51318ZM6.03614 4.39384L3.06633 4.37891L3.04624 8.37886L6.01605 8.39378L6.03614 4.39384ZM3.06635 4.37891C3.68326 4.38202 4.18257 4.88135 4.18567 5.49823L0.185721 5.51836C0.193656 7.09485 1.46969 8.37093 3.04622 8.37886L3.06635 4.37891ZM4.18567 5.49825L4.17075 2.52843L0.170799 2.54853L0.185721 5.51835L4.18567 5.49825ZM4.17075 2.52839C4.17388 3.14979 3.67268 3.65593 3.05146 3.65907L3.03127 -0.340883C1.44355 -0.332872 0.162787 0.9607 0.1708 2.54857L4.17075 2.52839ZM3.05141 3.65907C2.43009 3.66219 1.9239 3.16104 1.92078 2.53974L5.92073 2.51965C5.91275 0.931856 4.61913 -0.348856 3.03132 -0.340883L3.05141 3.65907ZM1.92078 2.53972L1.92515 3.41204L5.9251 3.39198L5.92073 2.51966L1.92078 2.53972ZM11.9999 7.94652C11.3786 7.94652 10.8749 7.44286 10.8749 6.82152H14.8749C14.8749 5.23369 13.5877 3.94652 11.9999 3.94652V7.94652ZM10.8749 6.82152V11.1258H14.8749V6.82152H10.8749ZM11.4607 12.54L14.121 15.2004L16.9494 12.3719L14.2891 9.71158L11.4607 12.54ZM14.121 15.2004C13.6818 14.7612 13.6815 14.0487 14.1213 13.6091L16.9492 16.438C18.0724 15.3151 18.0721 13.4946 16.9494 12.3719L14.121 15.2004ZM14.121 13.6093C14.5602 13.1701 15.2727 13.1698 15.7123 13.6095L12.8834 16.4375C14.0062 17.5607 15.8268 17.5604 16.9494 16.4377L14.121 13.6093ZM15.7121 13.6093L12.5391 10.4364L9.71069 13.2649L12.8837 16.4378L15.7121 13.6093ZM13.1249 11.8506V6.82152H9.12488V11.8506H13.1249ZM13.1249 6.82152C13.1249 7.44286 12.6212 7.94652 11.9999 7.94652V3.94652C10.4121 3.94652 9.12488 5.23369 9.12488 6.82152H13.1249Z" fill="url(#paint0_linear_2080_1101)" mask="url(#path-1-inside-1_2080_1101)"/>
<defs>
<linearGradient id="paint0_linear_2080_1101" x1="0.625" y1="11.4883" x2="23.375" y2="11.4883" gradientUnits="userSpaceOnUse">
<stop stop-color="#8E398D"/>
<stop offset="1" stop-color="#AC2D78"/>
</linearGradient>
</defs>
</svg>
