<svg width="28" height="20" viewBox="0 0 28 20" fill="none" xmlns="http://www.w3.org/2000/svg">
<path fill-rule="evenodd" clip-rule="evenodd" d="M12.1619 11.5068C12.5835 13.9906 13.0958 16.5847 13.3791 17.1183C13.7809 17.8743 14.7214 18.1675 15.4791 17.7656C16.2351 17.3637 16.5249 16.42 16.1231 15.664C15.8398 15.1303 13.9802 13.251 12.1619 11.5068ZM11.5228 8.64256C12.4205 9.47269 16.9318 13.671 17.5791 14.8932C18.4059 16.4513 17.8097 18.3915 16.2499 19.22C15.7739 19.472 15.2616 19.5906 14.7576 19.5906C13.6096 19.5906 12.4979 18.9729 11.9231 17.8908C11.2758 16.6687 10.332 10.5795 10.1492 9.37056C10.0981 9.02469 10.2694 8.68208 10.5774 8.52069C10.8887 8.35599 11.2642 8.40373 11.5228 8.64256ZM14.001 0.112305C21.7208 0.112305 28.001 6.39418 28.001 14.1123C28.001 15.2372 27.8709 16.3457 27.6123 17.4064L27.4608 18.0356H19.8135V16.3885H26.1464C26.2848 15.649 26.3539 14.8848 26.3539 14.1123C26.3539 7.30007 20.8116 1.75935 14.001 1.75935C7.18875 1.75935 1.64805 7.30007 1.64805 14.1123C1.64805 14.8848 1.71723 15.649 1.85394 16.3885H8.96264V18.0356H0.539583L0.388062 17.4064C0.131089 16.3457 0.000976562 15.2372 0.000976562 14.1123C0.000976562 6.39418 6.28123 0.112305 14.001 0.112305ZM21.9131 5.80981L23.0776 6.97429L21.4338 8.61805L20.2694 7.45357L21.9131 5.80981ZM6.08754 5.80981L7.7313 7.45356L6.56682 8.61803L4.92309 6.97426L6.08755 5.80978L6.08754 5.80981ZM14.8239 2.87327V5.19891H13.1768V2.87325L14.8239 2.87327Z" fill="white"/>
</svg>
