<svg xmlns="http://www.w3.org/2000/svg" fill="none" viewBox="2.5 4.17 23 20.67">
<path d="M3.5 10.4165C3.5 8.78571 3.5 7.97031 3.76642 7.32711C4.12165 6.46952 4.80302 5.78815 5.66061 5.43292C6.3038 5.1665 7.11921 5.1665 8.75 5.1665H19.25C20.8808 5.1665 21.6961 5.1665 22.3394 5.43292C23.1969 5.78815 23.8784 6.46952 24.2335 7.32711C24.5 7.97031 24.5 8.78571 24.5 10.4165V11.2915C24.5 11.7747 24.1082 12.1665 23.625 12.1665H23.3333C22.0446 12.1665 21 13.2111 21 14.4998C21 15.7885 22.0446 16.8332 23.3333 16.8332H23.625C24.1082 16.8332 24.5 17.2249 24.5 17.7082V18.5832C24.5 20.2139 24.5 21.0293 24.2335 21.6726C23.8784 22.5301 23.1969 23.2116 22.3394 23.5667C21.6961 23.8332 20.8808 23.8332 19.25 23.8332H8.75C7.11921 23.8332 6.3038 23.8332 5.66061 23.5667C4.80302 23.2116 4.12165 22.5301 3.76642 21.6726C3.5 21.0293 3.5 20.2139 3.5 18.5832V17.7082C3.5 17.2249 3.89175 16.8332 4.375 16.8332H4.66667C5.95533 16.8332 7 15.7885 7 14.4998C7 13.2111 5.95533 12.1665 4.66667 12.1665H4.375C3.89175 12.1665 3.5 11.7747 3.5 11.2915V10.4165Z" stroke="white" stroke-width="2"/>
<g clip-path="url(#clip0_2080_1112)">
<path d="M11.9447 15.0195L13.8374 16.7975C13.9026 16.8587 13.9352 16.8893 13.9736 16.8969C13.9909 16.9003 14.0087 16.9003 14.026 16.8969C14.0645 16.8893 14.097 16.8587 14.1622 16.7975L16.0549 15.0195C16.5874 14.5193 16.6521 13.6961 16.2042 13.1188L16.12 13.0103C15.5842 12.3197 14.5088 12.4355 14.1323 13.2243C14.0791 13.3357 13.9205 13.3357 13.8673 13.2243C13.4909 12.4355 12.4154 12.3197 11.8796 13.0103L11.7954 13.1188C11.3475 13.6961 11.4122 14.5193 11.9447 15.0195Z" fill="white" stroke="white" stroke-width="2"/>
</g>
<defs>
<clipPath id="clip0_2080_1112">
<rect width="6.53333" height="6.53333" fill="white" transform="translate(10.7334 11.2334)"/>
</clipPath>
</defs>
</svg>