<svg xmlns="http://www.w3.org/2000/svg" fill="none" viewBox="0 0.75 28 17.5">
<path d="M25.6895 3.06055C26.4368 3.80794 27.0065 4.6556 27.3984 5.60352C27.7904 6.55143 27.9909 7.55859 28 8.625C28 8.94401 27.9909 9.32682 27.9727 9.77344C27.9544 10.2201 27.918 10.7031 27.8633 11.2227C27.8086 11.7422 27.722 12.2754 27.6035 12.8223C27.485 13.3691 27.3346 13.9115 27.1523 14.4492C26.8789 15.2331 26.5599 15.8711 26.1953 16.3633C25.8307 16.8555 25.4525 17.2428 25.0605 17.5254C24.6686 17.8079 24.2721 17.9993 23.8711 18.0996C23.4701 18.1999 23.0964 18.25 22.75 18.25C22.4492 18.25 22.1758 18.1999 21.9297 18.0996C21.6836 17.9993 21.4466 17.8626 21.2188 17.6895C20.9909 17.5163 20.7812 17.3294 20.5898 17.1289C20.3984 16.9284 20.2025 16.7096 20.002 16.4727C19.8105 16.2539 19.6237 16.0443 19.4414 15.8438C19.2591 15.6432 19.0632 15.4655 18.8535 15.3105C18.6439 15.1556 18.4342 15.0234 18.2246 14.9141C18.015 14.8047 17.7689 14.75 17.4863 14.75H10.5137C10.2493 14.7591 10.0078 14.8138 9.78906 14.9141C9.57031 15.0143 9.35612 15.1419 9.14648 15.2969C8.93685 15.4518 8.74544 15.6341 8.57227 15.8438C8.39909 16.0534 8.20768 16.263 7.99805 16.4727C7.80664 16.6914 7.61523 16.9056 7.42383 17.1152C7.23242 17.3249 7.02279 17.5163 6.79492 17.6895C6.56706 17.8626 6.33008 17.9948 6.08398 18.0859C5.83789 18.1771 5.5599 18.2318 5.25 18.25C4.90365 18.25 4.52995 18.1999 4.12891 18.0996C3.72786 17.9993 3.33138 17.8125 2.93945 17.5391C2.54753 17.2656 2.16927 16.8783 1.80469 16.377C1.4401 15.8757 1.12109 15.2331 0.847656 14.4492C0.665365 13.9206 0.519531 13.3828 0.410156 12.8359C0.300781 12.2891 0.214193 11.7513 0.150391 11.2227C0.0865885 10.694 0.0455729 10.2109 0.0273438 9.77344C0.00911458 9.33594 0 8.95312 0 8.625C0 7.56771 0.195964 6.5651 0.587891 5.61719C0.979818 4.66927 1.55404 3.81706 2.31055 3.06055C3.04883 2.31315 3.89648 1.74349 4.85352 1.35156C5.81055 0.959635 6.81771 0.759115 7.875 0.75H20.125C21.1823 0.75 22.1849 0.945964 23.1328 1.33789C24.0807 1.72982 24.9329 2.30404 25.6895 3.06055ZM25.498 13.875C25.6712 13.3919 25.8079 12.8906 25.9082 12.3711C26.0085 11.8516 26.0814 11.3548 26.127 10.8809C26.1725 10.4069 26.2044 9.9694 26.2227 9.56836C26.2409 9.16732 26.25 8.85286 26.25 8.625C26.25 7.77734 26.0905 6.98438 25.7715 6.24609C25.4525 5.50781 25.015 4.86068 24.459 4.30469C23.903 3.7487 23.2559 3.3112 22.5176 2.99219C21.7793 2.67318 20.9818 2.50911 20.125 2.5H7.875C7.02734 2.5 6.23438 2.65951 5.49609 2.97852C4.75781 3.29753 4.11068 3.73503 3.55469 4.29102C2.9987 4.84701 2.5612 5.49414 2.24219 6.23242C1.92318 6.9707 1.75911 7.76823 1.75 8.625C1.75 8.86198 1.75456 9.17643 1.76367 9.56836C1.77279 9.96029 1.80469 10.3932 1.85938 10.8672C1.91406 11.3411 1.99154 11.8424 2.0918 12.3711C2.19206 12.8997 2.32878 13.401 2.50195 13.875C2.72982 14.5312 2.98047 15.0371 3.25391 15.3926C3.52734 15.748 3.79167 16.0078 4.04688 16.1719C4.30208 16.3359 4.53906 16.4316 4.75781 16.459C4.97656 16.4863 5.14062 16.5 5.25 16.5C5.45052 16.5 5.66927 16.3815 5.90625 16.1445C6.14323 15.9076 6.39844 15.6341 6.67188 15.3242C6.89062 15.069 7.12305 14.8092 7.36914 14.5449C7.61523 14.2806 7.89323 14.0345 8.20312 13.8066C8.51302 13.5788 8.85482 13.3919 9.22852 13.2461C9.60221 13.1003 10.0169 13.0182 10.4727 13H17.5273C17.9831 13.0182 18.3978 13.1003 18.7715 13.2461C19.1452 13.3919 19.4824 13.5742 19.7832 13.793C20.084 14.0117 20.362 14.2578 20.6172 14.5312C20.8724 14.8047 21.1094 15.069 21.3281 15.3242C21.5924 15.625 21.8431 15.8939 22.0801 16.1309C22.3171 16.3678 22.5404 16.4909 22.75 16.5C22.8594 16.5 23.0189 16.4863 23.2285 16.459C23.4382 16.4316 23.6751 16.3359 23.9395 16.1719C24.2038 16.0078 24.4727 15.748 24.7461 15.3926C25.0195 15.0371 25.2702 14.5312 25.498 13.875ZM7 7.75H8.75V9.5H7V11.25H5.25V9.5H3.5V7.75H5.25V6H7V7.75ZM22.75 9.5C22.9961 9.5 23.224 9.54557 23.4336 9.63672C23.6432 9.72786 23.8255 9.85091 23.9805 10.0059C24.1354 10.1608 24.263 10.3477 24.3633 10.5664C24.4635 10.7852 24.5091 11.013 24.5 11.25C24.5 11.4961 24.4544 11.724 24.3633 11.9336C24.2721 12.1432 24.1491 12.3255 23.9941 12.4805C23.8392 12.6354 23.6523 12.763 23.4336 12.8633C23.2148 12.9635 22.987 13.0091 22.75 13C22.5039 13 22.276 12.9544 22.0664 12.8633C21.8568 12.7721 21.6745 12.6491 21.5195 12.4941C21.3646 12.3392 21.237 12.1523 21.1367 11.9336C21.0365 11.7148 20.9909 11.487 21 11.25C21 11.0039 21.0456 10.776 21.1367 10.5664C21.2279 10.3568 21.3509 10.1745 21.5059 10.0195C21.6608 9.86458 21.8477 9.73698 22.0664 9.63672C22.2852 9.53646 22.513 9.49089 22.75 9.5ZM19.25 6C19.4961 6 19.724 6.04557 19.9336 6.13672C20.1432 6.22786 20.3255 6.35091 20.4805 6.50586C20.6354 6.66081 20.763 6.84766 20.8633 7.06641C20.9635 7.28516 21.0091 7.51302 21 7.75C21 7.99609 20.9544 8.22396 20.8633 8.43359C20.7721 8.64323 20.6491 8.82552 20.4941 8.98047C20.3392 9.13542 20.1523 9.26302 19.9336 9.36328C19.7148 9.46354 19.487 9.50911 19.25 9.5C19.0039 9.5 18.776 9.45443 18.5664 9.36328C18.3568 9.27214 18.1745 9.14909 18.0195 8.99414C17.8646 8.83919 17.737 8.65234 17.6367 8.43359C17.5365 8.21484 17.4909 7.98698 17.5 7.75C17.5 7.50391 17.5456 7.27604 17.6367 7.06641C17.7279 6.85677 17.8509 6.67448 18.0059 6.51953C18.1608 6.36458 18.3477 6.23698 18.5664 6.13672C18.7852 6.03646 19.013 5.99089 19.25 6Z" fill="white"/>
</svg>