<svg width="14" height="19" viewBox="0 0 14 19" fill="none" xmlns="http://www.w3.org/2000/svg">
<path d="M0.332681 9.71271C0.332681 9.94947 0.420478 10.1765 0.576758 10.3439C0.733038 10.5114 0.945001 10.6054 1.16601 10.6054L7.49101 10.6054L5.57435 12.6497C5.49665 12.7329 5.43502 12.8317 5.39296 12.9405C5.35091 13.0492 5.32927 13.1658 5.32927 13.2835C5.32927 13.4012 5.35091 13.5178 5.39296 13.6265C5.43502 13.7353 5.49665 13.8341 5.57435 13.9173C5.65205 14.0005 5.74429 14.0666 5.84581 14.1116C5.94733 14.1566 6.05613 14.1798 6.16601 14.1798C6.2759 14.1798 6.3847 14.1566 6.48622 14.1116C6.58774 14.0666 6.67998 14.0005 6.75768 13.9173L10.091 10.3465C10.1669 10.2616 10.2264 10.1615 10.266 10.0519C10.3494 9.83459 10.3494 9.59082 10.266 9.37348C10.2264 9.2639 10.1669 9.16379 10.091 9.07889L6.75768 5.50812C6.68021 5.42445 6.58804 5.35804 6.48649 5.31271C6.38495 5.26739 6.27602 5.24406 6.16601 5.24406C6.056 5.24406 5.94708 5.26739 5.84553 5.31272C5.74398 5.35804 5.65182 5.42445 5.57435 5.50812C5.49624 5.59111 5.43425 5.68984 5.39194 5.79862C5.34963 5.90741 5.32785 6.02409 5.32785 6.14193C5.32785 6.25978 5.34963 6.37646 5.39194 6.48524C5.43425 6.59402 5.49624 6.69276 5.57435 6.77574L7.49101 8.82001L1.16601 8.82001C0.945 8.82001 0.733038 8.91407 0.576758 9.08148C0.420478 9.24889 0.332681 9.47595 0.332681 9.71271ZM2.83268 18.6396L11.166 18.6396C11.8291 18.6396 12.4649 18.3575 12.9338 17.8553C13.4026 17.353 13.666 16.6718 13.666 15.9616L13.666 3.46385C13.666 2.75358 13.4026 2.0724 12.9338 1.57016C12.4649 1.06792 11.8291 0.785766 11.166 0.785766L2.83268 0.785767C2.16964 0.785767 1.53375 1.06792 1.06491 1.57016C0.596072 2.0724 0.33268 2.75358 0.33268 3.46385L0.332681 6.14193C0.332681 6.37869 0.420477 6.60575 0.576758 6.77316C0.733038 6.94057 0.945 7.03463 1.16601 7.03463C1.38703 7.03463 1.59899 6.94057 1.75527 6.77316C1.91155 6.60575 1.99935 6.37869 1.99935 6.14193L1.99935 3.46385C1.99935 3.22709 2.08714 3.00003 2.24342 2.83262C2.3997 2.66521 2.61167 2.57116 2.83268 2.57116L11.166 2.57115C11.387 2.57115 11.599 2.66521 11.7553 2.83262C11.9116 3.00003 11.9993 3.22709 11.9993 3.46385L11.9993 15.9616C11.9993 16.1983 11.9116 16.4254 11.7553 16.5928C11.599 16.7602 11.387 16.8543 11.166 16.8543L2.83268 16.8543C2.61167 16.8543 2.39971 16.7602 2.24343 16.5928C2.08714 16.4254 1.99935 16.1983 1.99935 15.9616L1.99935 13.2835C1.99935 13.0467 1.91155 12.8197 1.75527 12.6523C1.59899 12.4848 1.38703 12.3908 1.16601 12.3908C0.945001 12.3908 0.733039 12.4848 0.576758 12.6523C0.420478 12.8197 0.332681 13.0467 0.332681 13.2835L0.332681 15.9616C0.332681 16.6718 0.596073 17.353 1.06491 17.8553C1.53376 18.3575 2.16964 18.6396 2.83268 18.6396Z" fill="#282828"/>
</svg>
