<svg xmlns="http://www.w3.org/2000/svg" fill="none" viewBox="0 0.5 28 28">
<g clip-path="url(#clip0_2045_8182)">
<path d="M22.8419 6.27479H20.1001V1.6938C20.1001 1.03692 19.5632 0.5 18.9063 0.5H8.96754C8.31066 0.5 7.77374 1.03692 7.77374 1.6938V6.2805H5.15767C4.50079 6.2805 3.96387 6.81742 3.96387 7.4743V27.3062C3.96387 27.9631 4.50079 28.5 5.15767 28.5H22.7848C23.4416 28.5 23.9786 27.9631 24.0357 27.3062V7.46858C24.03 6.81171 23.4988 6.27479 22.8419 6.27479ZM10.1556 2.82477H17.7754V12.7693H10.1556V2.82477ZM21.6481 26.1638H6.34575V8.65667H7.77374V12.8435C7.3225 13.0149 6.99691 13.449 6.99691 13.9574C6.99691 14.6142 7.53384 15.1512 8.19071 15.1512H19.6832C20.34 15.1512 20.877 14.6142 20.877 13.9574C20.877 13.449 20.5514 13.0149 20.1001 12.8435V8.65667H21.6481V26.1638Z" fill="url(#paint0_linear_2045_8182)"/>
<path d="M10.156 16.9336H9.97895C9.32208 16.9336 8.78516 17.4705 8.78516 18.1274C8.78516 18.7843 9.32208 19.3212 9.97895 19.3212H10.156C10.8129 19.3212 11.3498 18.7843 11.3498 18.1274C11.3498 17.4705 10.8129 16.9336 10.156 16.9336Z" fill="url(#paint1_linear_2045_8182)"/>
<path d="M17.9578 16.9336H17.7807C17.1238 16.9336 16.5869 17.4705 16.5869 18.1274C16.5869 18.7843 17.1238 19.3212 17.7807 19.3212H17.9578C18.6147 19.3212 19.1516 18.7843 19.1516 18.1274C19.1516 17.4705 18.6147 16.9336 17.9578 16.9336Z" fill="url(#paint2_linear_2045_8182)"/>
<path d="M10.156 21.0459H9.97895C9.32208 21.0459 8.78516 21.5828 8.78516 22.2397C8.78516 22.8966 9.32208 23.4335 9.97895 23.4335H10.156C10.8129 23.4335 11.3498 22.8966 11.3498 22.2397C11.3498 21.5828 10.8129 21.0459 10.156 21.0459Z" fill="url(#paint3_linear_2045_8182)"/>
<path d="M17.9578 21.0459H17.7807C17.1238 21.0459 16.5869 21.5828 16.5869 22.2397C16.5869 22.8966 17.1238 23.4335 17.7807 23.4335H17.9578C18.6147 23.4335 19.1516 22.8966 19.1516 22.2397C19.1516 21.5828 18.6147 21.0459 17.9578 21.0459Z" fill="url(#paint4_linear_2045_8182)"/>
</g>
<defs>
<linearGradient id="paint0_linear_2045_8182" x1="3.96387" y1="14.5" x2="24.0357" y2="14.5" gradientUnits="userSpaceOnUse">
<stop stop-color="#8E398D"/>
<stop offset="1" stop-color="#AC2D78"/>
</linearGradient>
<linearGradient id="paint1_linear_2045_8182" x1="8.78516" y1="18.1274" x2="11.3498" y2="18.1274" gradientUnits="userSpaceOnUse">
<stop stop-color="#8E398D"/>
<stop offset="1" stop-color="#AC2D78"/>
</linearGradient>
<linearGradient id="paint2_linear_2045_8182" x1="16.5869" y1="18.1274" x2="19.1516" y2="18.1274" gradientUnits="userSpaceOnUse">
<stop stop-color="#8E398D"/>
<stop offset="1" stop-color="#AC2D78"/>
</linearGradient>
<linearGradient id="paint3_linear_2045_8182" x1="8.78516" y1="22.2397" x2="11.3498" y2="22.2397" gradientUnits="userSpaceOnUse">
<stop stop-color="#8E398D"/>
<stop offset="1" stop-color="#AC2D78"/>
</linearGradient>
<linearGradient id="paint4_linear_2045_8182" x1="16.5869" y1="22.2397" x2="19.1516" y2="22.2397" gradientUnits="userSpaceOnUse">
<stop stop-color="#8E398D"/>
<stop offset="1" stop-color="#AC2D78"/>
</linearGradient>
<clipPath id="clip0_2045_8182">
<rect width="28" height="28" fill="white" transform="translate(0 0.5)"/>
</clipPath>
</defs>
</svg>