<svg xmlns="http://www.w3.org/2000/svg" fill="none" viewBox="0 0.5 28 28">
<g clip-path="url(#clip0_2045_4385)">
<path d="M22.8429 6.27479H20.1011V1.6938C20.1011 1.03692 19.5642 0.5 18.9073 0.5H8.96852C8.31164 0.5 7.77472 1.03692 7.77472 1.6938V6.2805H5.15864C4.50177 6.2805 3.96484 6.81742 3.96484 7.4743V27.3062C3.96484 27.9631 4.50177 28.5 5.15864 28.5H22.7857C23.4426 28.5 23.9795 27.9631 24.0366 27.3062V7.46858C24.0309 6.81171 23.4997 6.27479 22.8429 6.27479ZM10.1566 2.82477H17.7763V12.7693H10.1566V2.82477ZM21.6491 26.1638H6.34673V8.65667H7.77472V12.8435C7.32347 13.0149 6.99789 13.449 6.99789 13.9574C6.99789 14.6142 7.53482 15.1512 8.19169 15.1512H19.6841C20.341 15.1512 20.8779 14.6142 20.8779 13.9574C20.8779 13.449 20.5524 13.0149 20.1011 12.8435V8.65667H21.6491V26.1638Z" fill="white"/>
<path d="M10.156 16.9336H9.97895C9.32208 16.9336 8.78516 17.4705 8.78516 18.1274C8.78516 18.7843 9.32208 19.3212 9.97895 19.3212H10.156C10.8129 19.3212 11.3498 18.7843 11.3498 18.1274C11.3498 17.4705 10.8129 16.9336 10.156 16.9336Z" fill="white"/>
<path d="M17.9588 16.9336H17.7817C17.1248 16.9336 16.5879 17.4705 16.5879 18.1274C16.5879 18.7843 17.1248 19.3212 17.7817 19.3212H17.9588C18.6156 19.3212 19.1526 18.7843 19.1526 18.1274C19.1526 17.4705 18.6156 16.9336 17.9588 16.9336Z" fill="white"/>
<path d="M10.156 21.0459H9.97895C9.32208 21.0459 8.78516 21.5828 8.78516 22.2397C8.78516 22.8966 9.32208 23.4335 9.97895 23.4335H10.156C10.8129 23.4335 11.3498 22.8966 11.3498 22.2397C11.3498 21.5828 10.8129 21.0459 10.156 21.0459Z" fill="white"/>
<path d="M17.9588 21.0459H17.7817C17.1248 21.0459 16.5879 21.5828 16.5879 22.2397C16.5879 22.8966 17.1248 23.4335 17.7817 23.4335H17.9588C18.6156 23.4335 19.1526 22.8966 19.1526 22.2397C19.1526 21.5828 18.6156 21.0459 17.9588 21.0459Z" fill="white"/>
</g>
<defs>
<clipPath id="clip0_2045_4385">
<rect width="28" height="28" fill="white" transform="translate(0 0.5)"/>
</clipPath>
</defs>
</svg>