<svg xmlns="http://www.w3.org/2000/svg" fill="none" viewBox="3.67 1.83 20.67 25.33">
<path d="M6.99935 22.666V12.166C6.99935 10.3095 7.73685 8.52902 9.0496 7.21627C10.3624 5.90351 12.1428 5.16602 13.9993 5.16602C15.8559 5.16602 17.6363 5.90351 18.9491 7.21627C20.2618 8.52902 20.9993 10.3095 20.9993 12.166V22.666M6.99935 22.666H20.9993M6.99935 22.666H4.66602M20.9993 22.666H23.3327M12.8327 26.166H15.166" stroke="white" stroke-width="2" stroke-linecap="round" stroke-linejoin="round"/>
<path d="M13.9987 5.16634C14.643 5.16634 15.1654 4.64401 15.1654 3.99967C15.1654 3.35534 14.643 2.83301 13.9987 2.83301C13.3544 2.83301 12.832 3.35534 12.832 3.99967C12.832 4.64401 13.3544 5.16634 13.9987 5.16634Z" stroke="white" stroke-width="2"/>
</svg>