<svg xmlns="http://www.w3.org/2000/svg" fill="none" viewBox="1.33 1.83 25.33 25.33">
<path d="M25.6673 26.1663H2.33398M23.334 26.1663V13.333M4.66732 26.1663V13.333" stroke="white" stroke-width="2" stroke-linecap="round"/>
<path d="M19.2833 2.83301H8.71798C7.31448 2.83301 6.61332 2.83301 6.04982 3.18184C5.48515 3.52951 5.17132 4.15717 4.54482 5.41251L2.90565 9.55301C2.52765 10.5097 2.19632 11.6367 2.83332 12.4452C3.1334 12.8267 3.54501 13.1051 4.0108 13.2417C4.47659 13.3783 4.97338 13.3662 5.43198 13.2071C5.89057 13.0481 6.28814 12.7499 6.56932 12.3543C6.85049 11.9586 7.00127 11.4851 7.00065 10.9997C7.00065 11.6185 7.24648 12.212 7.68407 12.6496C8.12165 13.0872 8.71514 13.333 9.33398 13.333C9.95282 13.333 10.5463 13.0872 10.9839 12.6496C11.4215 12.212 11.6673 11.6185 11.6673 10.9997C11.6673 11.6185 11.9131 12.212 12.3507 12.6496C12.7883 13.0872 13.3818 13.333 14.0006 13.333C14.6195 13.333 15.213 13.0872 15.6506 12.6496C16.0881 12.212 16.334 11.6185 16.334 10.9997C16.334 11.6185 16.5798 12.212 17.0174 12.6496C17.455 13.0872 18.0485 13.333 18.6673 13.333C19.2862 13.333 19.8796 13.0872 20.3172 12.6496C20.7548 12.212 21.0006 11.6185 21.0006 10.9997C21.0006 11.4847 21.1517 11.9577 21.4329 12.3528C21.7141 12.748 22.1114 13.0457 22.5697 13.2046C23.0279 13.3635 23.5243 13.3756 23.9898 13.2393C24.4552 13.103 24.8667 12.825 25.1668 12.444C25.8038 11.6355 25.4725 10.5085 25.0945 9.55184L23.4565 5.41251C22.83 4.15717 22.5161 3.52951 21.9515 3.18184C21.388 2.83301 20.6868 2.83301 19.2833 2.83301Z" stroke="white" stroke-width="2" stroke-linejoin="round"/>
<path d="M11.084 25.5827V22.0827C11.084 20.9918 11.084 20.447 11.3185 20.041C11.4721 19.775 11.693 19.5541 11.959 19.4005C12.365 19.166 12.9098 19.166 14.0007 19.166C15.0915 19.166 15.6363 19.166 16.0423 19.4005C16.3083 19.5541 16.5292 19.775 16.6828 20.041C16.9173 20.447 16.9173 20.9918 16.9173 22.0827V25.5827" stroke="white" stroke-width="2" stroke-linecap="round"/>
</svg>