<svg xmlns="http://www.w3.org/2000/svg" fill="none" viewBox="1.33 1.83 25.33 25.33">
<path d="M25.6663 26.1663H2.33301M23.333 26.1663V13.333M4.66634 26.1663V13.333" stroke="url(#paint0_linear_2045_8175)" stroke-width="2" stroke-linecap="round"/>
<path d="M19.2823 2.83301H8.71701C7.31351 2.83301 6.61234 2.83301 6.04884 3.18184C5.48417 3.52951 5.17034 4.15717 4.54384 5.41251L2.90467 9.55301C2.52667 10.5097 2.19534 11.6367 2.83234 12.4452C3.13243 12.8267 3.54403 13.1051 4.00982 13.2417C4.47561 13.3783 4.9724 13.3662 5.431 13.2071C5.8896 13.0481 6.28717 12.7499 6.56834 12.3543C6.84951 11.9586 7.00029 11.4851 6.99967 10.9997C6.99967 11.6185 7.24551 12.212 7.68309 12.6496C8.12068 13.0872 8.71417 13.333 9.33301 13.333C9.95184 13.333 10.5453 13.0872 10.9829 12.6496C11.4205 12.212 11.6663 11.6185 11.6663 10.9997C11.6663 11.6185 11.9122 12.212 12.3498 12.6496C12.7873 13.0872 13.3808 13.333 13.9997 13.333C14.6185 13.333 15.212 13.0872 15.6496 12.6496C16.0872 12.212 16.333 11.6185 16.333 10.9997C16.333 11.6185 16.5788 12.212 17.0164 12.6496C17.454 13.0872 18.0475 13.333 18.6663 13.333C19.2852 13.333 19.8787 13.0872 20.3163 12.6496C20.7538 12.212 20.9997 11.6185 20.9997 10.9997C20.9996 11.4847 21.1507 11.9577 21.4319 12.3528C21.7131 12.748 22.1105 13.0457 22.5687 13.2046C23.027 13.3635 23.5233 13.3756 23.9888 13.2393C24.4543 13.103 24.8657 12.825 25.1658 12.444C25.8028 11.6355 25.4715 10.5085 25.0935 9.55184L23.4555 5.41251C22.829 4.15717 22.5152 3.52951 21.9505 3.18184C21.387 2.83301 20.6858 2.83301 19.2823 2.83301Z" stroke="url(#paint1_linear_2045_8175)" stroke-width="2" stroke-linejoin="round"/>
<path d="M11.083 25.5827V22.0827C11.083 20.9918 11.083 20.447 11.3175 20.041C11.4711 19.775 11.692 19.5541 11.958 19.4005C12.364 19.166 12.9088 19.166 13.9997 19.166C15.0905 19.166 15.6353 19.166 16.0413 19.4005C16.3074 19.5541 16.5283 19.775 16.6818 20.041C16.9163 20.447 16.9163 20.9918 16.9163 22.0827V25.5827" stroke="url(#paint2_linear_2045_8175)" stroke-width="2" stroke-linecap="round"/>
<defs>
<linearGradient id="paint0_linear_2045_8175" x1="2.33301" y1="19.7497" x2="25.6663" y2="19.7497" gradientUnits="userSpaceOnUse">
<stop stop-color="#8E398D"/>
<stop offset="1" stop-color="#AC2D78"/>
</linearGradient>
<linearGradient id="paint1_linear_2045_8175" x1="2.47363" y1="8.08449" x2="25.5245" y2="8.08449" gradientUnits="userSpaceOnUse">
<stop stop-color="#8E398D"/>
<stop offset="1" stop-color="#AC2D78"/>
</linearGradient>
<linearGradient id="paint2_linear_2045_8175" x1="11.083" y1="22.3743" x2="16.9163" y2="22.3743" gradientUnits="userSpaceOnUse">
<stop stop-color="#8E398D"/>
<stop offset="1" stop-color="#AC2D78"/>
</linearGradient>
</defs>
</svg>