<svg width="24" height="23" viewBox="0 0 24 23" fill="none" xmlns="http://www.w3.org/2000/svg">
<mask id="path-1-inside-1_3589_10920" fill="white">
<path fill-rule="evenodd" clip-rule="evenodd" d="M3.92513 3.41373C8.35302 -1.00791 15.551 -0.960898 20.0059 3.49408C24.4628 7.95097 24.508 15.1532 20.0806 19.5806C15.6531 24.008 8.45092 23.9628 3.99403 19.5059C1.35287 16.8648 0.262213 13.2615 0.730548 9.84473C0.796173 9.36593 1.2375 9.03106 1.71626 9.09669C2.19504 9.16231 2.52996 9.60358 2.46434 10.0824C2.0677 12.9761 2.99079 16.0278 5.23147 18.2685C9.01669 22.0538 15.1108 22.0754 18.8431 18.3431C22.5754 14.6108 22.5537 8.51674 18.7684 4.73151C14.9851 0.948212 8.89537 0.924622 5.16257 4.65117L6.03489 4.65555C6.51814 4.65798 6.90791 5.05169 6.90548 5.53494C6.90305 6.01818 6.50934 6.40796 6.02609 6.40553L3.05629 6.39061C2.57647 6.38819 2.18811 5.99982 2.1857 5.52002L2.17077 2.5502C2.16834 2.06696 2.55812 1.67325 3.04136 1.67081C3.52461 1.66838 3.91832 2.05817 3.92075 2.54141L3.92513 3.41373ZM11.9999 5.95824C12.4831 5.95824 12.8749 6.35 12.8749 6.83324V11.1375L15.5352 13.7979C15.8769 14.1396 15.8769 14.6936 15.5352 15.0352C15.1935 15.3769 14.6395 15.3769 14.2979 15.0352L11.1249 11.8624V6.83324C11.1249 6.35 11.5166 5.95824 11.9999 5.95824Z"/>
</mask>
<path d="M3.92513 3.41373L1.92515 3.42376L1.94917 8.21332L5.33834 4.82894L3.92513 3.41373ZM20.0059 3.49408L18.5917 4.90828L18.5917 4.90829L20.0059 3.49408ZM20.0806 19.5806L21.4948 20.9948L21.4948 20.9948L20.0806 19.5806ZM3.99403 19.5059L5.40824 18.0917L5.40823 18.0917L3.99403 19.5059ZM0.730548 9.84473L2.71202 10.1163L2.71202 10.1163L0.730548 9.84473ZM1.71626 9.09669L1.44466 11.0782L1.44467 11.0782L1.71626 9.09669ZM2.46434 10.0824L4.44581 10.354L4.44582 10.3539L2.46434 10.0824ZM5.23147 18.2685L3.81724 19.6827L3.81725 19.6827L5.23147 18.2685ZM18.7684 4.73151L17.3542 6.14572L17.3542 6.14573L18.7684 4.73151ZM5.16257 4.65117L3.74955 3.23577L0.352619 6.627L5.15252 6.65114L5.16257 4.65117ZM6.03489 4.65555L6.02483 6.65553L6.02485 6.65553L6.03489 4.65555ZM6.02609 6.40553L6.01605 8.4055L6.01605 8.4055L6.02609 6.40553ZM3.05629 6.39061L3.04622 8.39058L3.04624 8.39058L3.05629 6.39061ZM2.1857 5.52002L0.185721 5.53007L0.185721 5.53008L2.1857 5.52002ZM2.17077 2.5502L4.17075 2.54015L4.17075 2.54011L2.17077 2.5502ZM3.04136 1.67081L3.03132 -0.329164L3.03127 -0.329164L3.04136 1.67081ZM3.92075 2.54141L5.92073 2.53138L5.92073 2.53137L3.92075 2.54141ZM12.8749 11.1375H10.8749V11.9659L11.4607 12.5517L12.8749 11.1375ZM15.5352 15.0352L14.1213 13.6208L14.121 13.621L15.5352 15.0352ZM14.2979 15.0352L15.7123 13.6213L15.7121 13.621L14.2979 15.0352ZM11.1249 11.8624H9.12488V12.6908L9.71069 13.2766L11.1249 11.8624ZM5.33834 4.82894C8.97141 1.201 14.9037 1.2203 18.5917 4.90828L21.4201 2.07987C16.1982 -3.1421 7.73463 -3.21683 2.51191 1.99852L5.33834 4.82894ZM18.5917 4.90829C22.2813 8.59789 22.299 14.5337 18.6664 18.1664L21.4948 20.9948C26.7169 15.7727 26.6443 7.30405 21.4201 2.07986L18.5917 4.90829ZM18.6664 18.1663C15.0336 21.799 9.09783 21.7813 5.40824 18.0917L2.57981 20.9201C7.80401 26.1443 16.2725 26.2169 21.4948 20.9948L18.6664 18.1663ZM5.40823 18.0917C3.22489 15.9084 2.32561 12.9355 2.71202 10.1163L-1.25093 9.57314C-1.80118 13.5876 -0.519151 17.8212 2.57983 20.9201L5.40823 18.0917ZM2.71202 10.1163C2.62763 10.732 2.06009 11.1625 1.44466 11.0782L1.98787 7.11522C0.414907 6.89961 -1.03529 7.99985 -1.25093 9.57315L2.71202 10.1163ZM1.44467 11.0782C0.829172 10.9938 0.398507 10.4264 0.482861 9.81085L4.44582 10.3539C4.66141 8.78076 3.56091 7.33083 1.98786 7.11522L1.44467 11.0782ZM0.482871 9.81078C0.00425629 13.3025 1.11899 16.9845 3.81724 19.6827L6.64569 16.8543C4.86258 15.0712 4.13114 12.6497 4.44581 10.354L0.482871 9.81078ZM3.81725 19.6827C8.37049 24.236 15.731 24.2836 20.2573 19.7573L17.4289 16.9289C14.4906 19.8671 9.6629 19.8716 6.64568 16.8543L3.81725 19.6827ZM20.2573 19.7573C24.7836 15.231 24.7359 7.8705 20.1826 3.3173L17.3542 6.14573C20.3715 9.16298 20.3671 13.9906 17.4289 16.9289L20.2573 19.7573ZM20.1826 3.31731C15.6318 -1.23361 8.27651 -1.28361 3.74955 3.23577L6.5756 6.06656C9.51423 3.13286 14.3385 3.13004 17.3542 6.14572L20.1826 3.31731ZM5.15252 6.65114L6.02483 6.65553L6.04495 2.65558L5.17263 2.65119L5.15252 6.65114ZM6.02485 6.65553C5.40351 6.65241 4.90239 6.14618 4.90551 5.5249L8.90546 5.54498C8.91343 3.95721 7.63276 2.66355 6.04493 2.65558L6.02485 6.65553ZM4.90551 5.5249C4.90863 4.90356 5.41485 4.40243 6.03614 4.40555L6.01605 8.4055C7.60382 8.41348 8.89748 7.13281 8.90546 5.54498L4.90551 5.5249ZM6.03614 4.40555L3.06633 4.39063L3.04624 8.39058L6.01605 8.4055L6.03614 4.40555ZM3.06635 4.39063C3.68326 4.39374 4.18257 4.89307 4.18567 5.50995L0.185721 5.53008C0.193656 7.10657 1.46969 8.38265 3.04622 8.39058L3.06635 4.39063ZM4.18567 5.50997L4.17075 2.54015L0.170799 2.56025L0.185721 5.53007L4.18567 5.50997ZM4.17075 2.54011C4.17388 3.16151 3.67268 3.66765 3.05146 3.67079L3.03127 -0.329164C1.44355 -0.321153 0.162788 0.972419 0.1708 2.56029L4.17075 2.54011ZM3.05141 3.67079C2.43009 3.67391 1.9239 3.17276 1.92078 2.55146L5.92073 2.53137C5.91275 0.943575 4.61913 -0.337138 3.03132 -0.329164L3.05141 3.67079ZM1.92078 2.55144L1.92515 3.42376L5.9251 3.4037L5.92073 2.53138L1.92078 2.55144ZM11.9999 7.95824C11.3786 7.95824 10.8749 7.45458 10.8749 6.83324H14.8749C14.8749 5.24541 13.5877 3.95824 11.9999 3.95824V7.95824ZM10.8749 6.83324V11.1375H14.8749V6.83324H10.8749ZM11.4607 12.5517L14.121 15.2121L16.9494 12.3837L14.2891 9.7233L11.4607 12.5517ZM14.121 15.2121C13.6818 14.7729 13.6815 14.0604 14.1213 13.6208L16.9492 16.4497C18.0724 15.3269 18.0721 13.5063 16.9494 12.3837L14.121 15.2121ZM14.121 13.621C14.5602 13.1818 15.2727 13.1815 15.7123 13.6213L12.8834 16.4492C14.0062 17.5724 15.8268 17.5721 16.9494 16.4494L14.121 13.621ZM15.7121 13.621L12.5391 10.4481L9.71069 13.2766L12.8837 16.4495L15.7121 13.621ZM13.1249 11.8624V6.83324H9.12488V11.8624H13.1249ZM13.1249 6.83324C13.1249 7.45458 12.6212 7.95824 11.9999 7.95824V3.95824C10.4121 3.95824 9.12488 5.24541 9.12488 6.83324H13.1249Z" fill="white" mask="url(#path-1-inside-1_3589_10920)"/>
</svg>
