<svg xmlns="http://www.w3.org/2000/svg" fill="none" viewBox="0.06 0.56 21.88 21.88">
<path d="M21.0625 0.5625C20.9586 0.5625 20.852 0.581641 20.7453 0.625391L4.98438 6.9582H0.5C0.259375 6.9582 0.0625 7.16055 0.0625 7.41211V15.5879C0.0625 15.8395 0.259375 16.0418 0.5 16.0418H3.28086C3.17969 16.359 3.125 16.6953 3.125 17.0371C3.125 18.8391 4.59609 20.3047 6.40625 20.3047C7.92109 20.3047 9.19805 19.2766 9.57539 17.8875L20.748 22.3773C20.8547 22.4184 20.9613 22.4402 21.0652 22.4402C21.5273 22.4402 21.9402 22.052 21.9402 21.5324V1.47031C21.9375 0.950781 21.5273 0.5625 21.0625 0.5625ZM6.40625 18.3441C5.68164 18.3441 5.09375 17.759 5.09375 17.0371C5.09375 16.7309 5.20039 16.4383 5.39453 16.2059L7.71602 17.1383C7.66133 17.8109 7.09531 18.3441 6.40625 18.3441ZM19.9688 19.941L5.71719 14.2152L5.36445 14.073H2.03125V8.92695H5.36445L5.71719 8.78477L19.9688 3.05898V19.941Z" fill="white"/>
</svg>