<svg xmlns="http://www.w3.org/2000/svg" fill="none" viewBox="0.41 0.83 23.22 23.35">
<path d="M16.3286 13.3286C17.4724 12.4287 18.3072 11.1946 18.717 9.79816C19.1268 8.40168 19.0911 6.9122 18.615 5.53694C18.1388 4.16168 17.2459 2.96902 16.0603 2.12489C14.8748 1.28077 13.4556 0.827148 12.0002 0.827148C10.5449 0.827148 9.12571 1.28077 7.94016 2.12489C6.75461 2.96902 5.86164 4.16168 5.38549 5.53694C4.90933 6.9122 4.87367 8.40168 5.28346 9.79816C5.69325 11.1946 6.52812 12.4287 7.67191 13.3286C5.712 14.1138 4.00191 15.4161 2.72395 17.0968C1.44599 18.7775 0.648064 20.7734 0.41524 22.8719C0.398387 23.0251 0.411876 23.1801 0.454937 23.3281C0.497997 23.4761 0.569786 23.6142 0.666204 23.7344C0.860929 23.9773 1.14415 24.1329 1.45357 24.1669C1.76299 24.2009 2.07326 24.1107 2.31612 23.9159C2.55898 23.7212 2.71454 23.438 2.74857 23.1286C3.00476 20.848 4.09221 18.7417 5.80316 17.2122C7.51412 15.6826 9.72862 14.8371 12.0236 14.8371C14.3185 14.8371 16.533 15.6826 18.244 17.2122C19.9549 18.7417 21.0424 20.848 21.2986 23.1286C21.3303 23.4152 21.4671 23.68 21.6825 23.8717C21.898 24.0635 22.1768 24.1686 22.4652 24.1669H22.5936C22.8994 24.1317 23.1789 23.9771 23.3712 23.7367C23.5635 23.4963 23.653 23.1897 23.6202 22.8836C23.3863 20.7791 22.5841 18.778 21.2996 17.0948C20.015 15.4116 18.2966 14.1096 16.3286 13.3286ZM12.0002 12.5002C11.0773 12.5002 10.175 12.2265 9.40758 11.7138C8.64015 11.201 8.04201 10.4721 7.6888 9.61942C7.33559 8.7667 7.24318 7.82838 7.42324 6.92314C7.60331 6.0179 8.04776 5.18637 8.70041 4.53373C9.35305 3.88108 10.1846 3.43663 11.0898 3.25656C11.9951 3.0765 12.9334 3.16891 13.7861 3.52212C14.6388 3.87533 15.3677 4.47347 15.8804 5.2409C16.3932 6.00833 16.6669 6.91058 16.6669 7.83356C16.6669 9.07124 16.1752 10.2582 15.3001 11.1334C14.4249 12.0086 13.2379 12.5002 12.0002 12.5002Z" fill="white"/>
</svg>