<svg xmlns="http://www.w3.org/2000/svg" fill="none" viewBox="0.41 0.04 23.22 23.35">
<path d="M16.3286 12.5454C17.4724 11.6455 18.3072 10.4114 18.717 9.01496C19.1268 7.61848 19.0911 6.129 18.615 4.75374C18.1388 3.37847 17.2459 2.18582 16.0603 1.34169C14.8748 0.497563 13.4556 0.0439453 12.0002 0.0439453C10.5449 0.0439453 9.12571 0.497563 7.94016 1.34169C6.75461 2.18582 5.86164 3.37847 5.38549 4.75374C4.90933 6.129 4.87367 7.61848 5.28346 9.01496C5.69325 10.4114 6.52812 11.6455 7.67191 12.5454C5.712 13.3306 4.00191 14.6329 2.72395 16.3136C1.44599 17.9943 0.648064 19.9902 0.41524 22.0887C0.398387 22.2419 0.411876 22.3969 0.454937 22.5449C0.497997 22.6929 0.569786 22.831 0.666204 22.9512C0.860929 23.1941 1.14415 23.3497 1.45357 23.3837C1.76299 23.4177 2.07326 23.3275 2.31612 23.1327C2.55898 22.938 2.71454 22.6548 2.74857 22.3454C3.00476 20.0648 4.09221 17.9585 5.80316 16.429C7.51412 14.8994 9.72862 14.0539 12.0236 14.0539C14.3185 14.0539 16.533 14.8994 18.244 16.429C19.9549 17.9585 21.0424 20.0648 21.2986 22.3454C21.3303 22.632 21.4671 22.8968 21.6825 23.0885C21.898 23.2803 22.1768 23.3854 22.4652 23.3837H22.5936C22.8994 23.3485 23.1789 23.1939 23.3712 22.9535C23.5635 22.7131 23.653 22.4065 23.6202 22.1004C23.3863 19.9959 22.5841 17.9948 21.2996 16.3116C20.015 14.6284 18.2966 13.3264 16.3286 12.5454ZM12.0002 11.717C11.0773 11.717 10.175 11.4433 9.40758 10.9306C8.64015 10.4178 8.04201 9.68894 7.6888 8.83622C7.33559 7.98349 7.24318 7.04518 7.42324 6.13994C7.60331 5.23469 8.04776 4.40317 8.70041 3.75053C9.35305 3.09788 10.1846 2.65342 11.0898 2.47336C11.9951 2.2933 12.9334 2.38571 13.7861 2.73892C14.6388 3.09213 15.3677 3.69027 15.8804 4.4577C16.3932 5.22513 16.6669 6.12738 16.6669 7.05036C16.6669 8.28804 16.1752 9.47502 15.3001 10.3502C14.4249 11.2254 13.2379 11.717 12.0002 11.717Z" fill="url(#paint0_linear_2045_8168)"/>
<defs>
<linearGradient id="paint0_linear_2045_8168" x1="0.408203" y1="11.7173" x2="23.6269" y2="11.7173" gradientUnits="userSpaceOnUse">
<stop stop-color="#8E398D"/>
<stop offset="1" stop-color="#AC2D78"/>
</linearGradient>
</defs>
</svg>