<svg xmlns="http://www.w3.org/2000/svg" fill="none" viewBox="0.11 0.31 27.78 17.95">
<path d="M13.6911 12.6651C14.7904 11.7411 15.5789 10.5014 15.9497 9.11407C16.3205 7.72673 16.2556 6.25893 15.7639 4.90971C15.2721 3.56049 14.3774 2.39515 13.2008 1.57172C12.0243 0.748301 10.6231 0.306641 9.18703 0.306641C7.751 0.306641 6.34971 0.748301 5.17321 1.57172C3.99671 2.39515 3.10192 3.56049 2.6102 4.90971C2.11847 6.25893 2.05361 7.72673 2.4244 9.11407C2.79519 10.5014 3.58369 11.7411 4.68297 12.6651C2.96641 13.4413 1.47884 14.6467 0.363749 16.1651C0.157791 16.4458 0.0717586 16.7968 0.124576 17.1408C0.177394 17.4849 0.364736 17.7939 0.645389 17.9999C0.926042 18.2059 1.27702 18.2919 1.6211 18.2391C1.96519 18.1863 2.2742 17.9989 2.48015 17.7183C3.25206 16.664 4.26161 15.8066 5.42691 15.2156C6.5922 14.6245 7.88042 14.3165 9.18703 14.3165C10.4936 14.3165 11.7819 14.6245 12.9472 15.2156C14.1124 15.8066 15.122 16.664 15.8939 17.7183C16.0999 17.9991 16.4089 18.1865 16.7531 18.2395C17.0973 18.2924 17.4484 18.2064 17.7292 18.0004C18.01 17.7945 18.1975 17.4854 18.2504 17.1412C18.3033 16.797 18.2174 16.4459 18.0114 16.1651C16.8956 14.6469 15.4078 13.4416 13.6911 12.6651ZM4.81203 7.31232C4.81203 6.44703 5.06862 5.60116 5.54935 4.8817C6.03008 4.16223 6.71336 3.60148 7.51279 3.27035C8.31222 2.93921 9.19188 2.85257 10.0406 3.02138C10.8892 3.19019 11.6688 3.60687 12.2806 4.21873C12.8925 4.83058 13.3092 5.61013 13.478 6.4588C13.6468 7.30747 13.5601 8.18713 13.229 8.98656C12.8979 9.78599 12.3371 10.4693 11.6177 10.95C10.8982 11.4307 10.0523 11.6873 9.18703 11.6873C8.02671 11.6873 6.91391 11.2264 6.09344 10.4059C5.27297 9.58544 4.81203 8.47264 4.81203 7.31232ZM27.3542 17.995C27.2153 18.0971 27.0576 18.1708 26.8901 18.2119C26.7227 18.2531 26.5488 18.2608 26.3783 18.2347C26.2079 18.2086 26.0443 18.1492 25.8968 18.0598C25.7493 17.9704 25.6209 17.8529 25.5189 17.7139C24.7451 16.6617 23.7351 15.8057 22.5703 15.2149C21.4054 14.6242 20.1181 14.315 18.812 14.3123C18.4639 14.3123 18.1301 14.174 17.884 13.9279C17.6378 13.6818 17.4995 13.3479 17.4995 12.9998C17.4995 12.6517 17.6378 12.3179 17.884 12.0717C18.1301 11.8256 18.4639 11.6873 18.812 11.6873C19.4339 11.6862 20.0483 11.5526 20.6144 11.2953C21.1806 11.038 21.6853 10.6629 22.0951 10.1952C22.5048 9.72746 22.8102 9.17774 22.9907 8.5827C23.1713 7.98765 23.2229 7.36095 23.1422 6.74437C23.0615 6.12779 22.8502 5.53551 22.5226 5.007C22.1949 4.47849 21.7583 4.02591 21.242 3.67942C20.7256 3.33293 20.1413 3.1005 19.5281 2.99762C18.9148 2.89474 18.2866 2.92377 17.6855 3.08279C17.5176 3.13136 17.3417 3.14591 17.1681 3.12558C16.9944 3.10525 16.8267 3.05045 16.6745 2.9644C16.5224 2.87834 16.389 2.76277 16.2821 2.62446C16.1752 2.48614 16.0971 2.32788 16.0522 2.15895C16.0073 1.99002 15.9966 1.81383 16.0208 1.64071C16.0449 1.4676 16.1034 1.30105 16.1928 1.15085C16.2822 1.00064 16.4006 0.869794 16.5413 0.765995C16.6819 0.662195 16.8418 0.58753 17.0117 0.546381C18.5489 0.139068 20.179 0.26732 21.6336 0.910021C23.0883 1.55272 24.2807 2.67156 25.0146 4.08235C25.7485 5.49314 25.9802 7.11178 25.6714 8.67179C25.3627 10.2318 24.532 11.6402 23.3161 12.6651C25.0326 13.4413 26.5202 14.6467 27.6353 16.1651C27.8398 16.4454 27.925 16.7952 27.8723 17.1381C27.8197 17.4809 27.6334 17.789 27.3542 17.995Z" fill="url(#paint0_linear_2045_8172)"/>
<defs>
<linearGradient id="paint0_linear_2045_8172" x1="0.109375" y1="9.28068" x2="27.8876" y2="9.28068" gradientUnits="userSpaceOnUse">
<stop stop-color="#8E398D"/>
<stop offset="1" stop-color="#AC2D78"/>
</linearGradient>
</defs>
</svg>