<svg xmlns="http://www.w3.org/2000/svg" fill="none" viewBox="0.06 0.56 21.88 21.88">
<path d="M20.7344 1.875H18.2188V0.78125C18.2188 0.660937 18.1203 0.5625 18 0.5625H4C3.87969 0.5625 3.78125 0.660937 3.78125 0.78125V1.875H1.26562C0.946536 1.875 0.640517 2.00176 0.414887 2.22739C0.189257 2.45302 0.0625 2.75904 0.0625 3.07812V7.125C0.0625 9.35898 1.70312 11.2156 3.84141 11.5547C4.26523 14.732 6.81641 17.234 10.0156 17.584V20.4605H4.65625C4.17227 20.4605 3.78125 20.8516 3.78125 21.3355V22.2188C3.78125 22.3391 3.87969 22.4375 4 22.4375H18C18.1203 22.4375 18.2188 22.3391 18.2188 22.2188V21.3355C18.2188 20.8516 17.8277 20.4605 17.3438 20.4605H11.9844V17.584C15.1836 17.234 17.7348 14.732 18.1586 11.5547C20.2969 11.2156 21.9375 9.35898 21.9375 7.125V3.07812C21.9375 2.75904 21.8107 2.45302 21.5851 2.22739C21.3595 2.00176 21.0535 1.875 20.7344 1.875ZM2.03125 7.125V3.84375H3.78125V9.52031C3.27333 9.35808 2.83011 9.03863 2.51556 8.60809C2.20101 8.17756 2.03141 7.6582 2.03125 7.125ZM16.25 10.625C16.25 11.9676 15.7277 13.2336 14.7762 14.1824C13.8246 15.134 12.5613 15.6562 11.2188 15.6562H10.7812C9.43867 15.6562 8.17266 15.134 7.22383 14.1824C6.27227 13.2309 5.75 11.9676 5.75 10.625V2.53125H16.25V10.625ZM19.9688 7.125C19.9688 8.24609 19.2332 9.19766 18.2188 9.52031V3.84375H19.9688V7.125Z" fill="url(#paint0_linear_2045_8201)"/>
<defs>
<linearGradient id="paint0_linear_2045_8201" x1="0.0625" y1="11.5" x2="21.9375" y2="11.5" gradientUnits="userSpaceOnUse">
<stop stop-color="#8E398D"/>
<stop offset="1" stop-color="#AC2D78"/>
</linearGradient>
</defs>
</svg>