<svg width="65" height="65" viewBox="0 0 65 65" fill="none" xmlns="http://www.w3.org/2000/svg">
<path d="M20.8657 53.8802H51.5323L59.5323 61.8802V33.8802C59.5323 30.9469 57.1323 28.5469 54.199 28.5469H20.8657C17.9323 28.5469 15.5323 30.9469 15.5323 33.8802V48.5469C15.5323 51.4802 17.9323 53.8802 20.8657 53.8802Z" fill="url(#paint0_linear_794_2634)"/>
<path d="M39.2657 44.2802H34.4657L33.5323 47.0802H30.599L35.5323 33.7468H38.0657L42.999 47.0802H40.0657L39.2657 44.2802ZM35.1323 42.1468H38.4657L36.8657 37.0802L35.1323 42.1468Z" fill="white"/>
<path d="M44.8658 33.8801H14.1991L6.1991 41.8801V11.2135C6.1991 8.28013 8.5991 5.88013 11.5324 5.88013H44.8658C47.7991 5.88013 50.1991 8.28013 50.1991 11.2135V28.5468C50.1991 31.4801 47.7991 33.8801 44.8658 33.8801Z" fill="url(#paint1_linear_794_2634)"/>
<path d="M34.7324 19.4802C34.7324 20.8136 34.4657 21.8802 34.0657 22.8136C33.6657 23.7469 33.1324 24.5469 32.3324 25.0802L34.599 26.8136L32.8657 28.4136L29.9324 26.1469C29.6657 26.1469 29.2657 26.2802 28.8657 26.2802C28.0657 26.2802 27.2657 26.1469 26.4657 25.8802C25.799 25.6136 25.1324 25.0802 24.599 24.5469C24.0657 24.0136 23.6657 23.2136 23.399 22.4136C23.1324 21.6136 22.999 20.6802 22.999 19.6136V19.0802C22.999 18.0136 23.1324 17.0802 23.399 16.2802C23.6657 15.4802 24.0657 14.6802 24.599 14.1469C25.1324 13.6136 25.6657 13.0802 26.4657 12.8136C27.1324 12.5469 27.9324 12.4136 28.8657 12.4136C29.6657 12.4136 30.4657 12.5469 31.2657 12.8136C31.9324 13.0802 32.599 13.6136 33.1324 14.1469C33.6657 14.6802 34.0657 15.4802 34.3324 16.2802C34.599 17.0802 34.7324 18.0136 34.7324 19.0802V19.4802ZM31.799 18.8136C31.799 17.3469 31.5324 16.2802 30.999 15.6136C30.4657 14.8136 29.799 14.5469 28.8657 14.5469C27.9324 14.5469 27.1324 14.9469 26.7324 15.6136C26.199 16.4136 25.9324 17.4802 25.9324 18.8136V19.4802C25.9324 20.1469 26.0657 20.8136 26.199 21.3469C26.3324 21.8802 26.4657 22.4136 26.7324 22.6802C26.999 23.0802 27.2657 23.3469 27.6657 23.4802C28.0657 23.6136 28.4657 23.7469 28.8657 23.7469C29.799 23.7469 30.599 23.3469 30.999 22.6802C31.5324 21.8802 31.799 20.8136 31.799 19.3469V18.8136Z" fill="white"/>
<defs>
<linearGradient id="paint0_linear_794_2634" x1="15.5323" y1="45.2135" x2="59.5323" y2="45.2135" gradientUnits="userSpaceOnUse">
<stop stop-color="#8E398D"/>
<stop offset="1" stop-color="#AC2D78"/>
</linearGradient>
<linearGradient id="paint1_linear_794_2634" x1="6.1991" y1="23.8801" x2="50.1991" y2="23.8801" gradientUnits="userSpaceOnUse">
<stop stop-color="#8E398D"/>
<stop offset="1" stop-color="#AC2D78"/>
</linearGradient>
</defs>
</svg>
