<svg width="31" height="32" viewBox="0 0 31 32" fill="none" xmlns="http://www.w3.org/2000/svg">
<path d="M17.0934 0C18.8371 0.00479988 19.7221 0.0143997 20.4862 0.0367991L20.7869 0.0479988C21.1341 0.0607985 21.4766 0.0767981 21.8904 0.0959976C23.5395 0.175996 24.6648 0.444789 25.6521 0.83998C26.675 1.24637 27.5368 1.79676 28.3985 2.68474C29.187 3.48429 29.7969 4.45185 30.1856 5.51987C30.5684 6.53904 30.8288 7.70061 30.9063 9.40457C30.9249 9.83016 30.9404 10.1838 30.9528 10.5437L30.9621 10.8541C30.9854 11.6413 30.9947 12.5549 30.9978 14.3549L30.9993 15.5484V17.6444C31.0031 18.8114 30.9912 19.9784 30.9637 21.1451L30.9544 21.4555C30.942 21.8155 30.9265 22.1691 30.9079 22.5947C30.8304 24.2986 30.5669 25.4586 30.1856 26.4794C29.7969 27.5474 29.187 28.5149 28.3985 29.3145C27.624 30.1284 26.6867 30.758 25.6521 31.1592C24.6648 31.5544 23.5395 31.8232 21.8904 31.9032L20.7869 31.9512L20.4862 31.9608C19.7221 31.9832 18.8371 31.9944 17.0934 31.9976L15.9372 31.9992H13.9083C12.7773 32.0033 11.6463 31.9911 10.5156 31.9624L10.2149 31.9528C9.84693 31.9384 9.47908 31.9219 9.11132 31.9032C7.4622 31.8232 6.33696 31.5544 5.34811 31.1592C4.31405 30.7577 3.3773 30.1282 2.6032 29.3145C1.81421 28.5151 1.20379 27.5475 0.814591 26.4794C0.43176 25.4602 0.171373 24.2986 0.0938768 22.5947L0.0473792 21.4555L0.0396298 21.1451C0.0110586 19.9784 -0.00185881 18.8114 0.000881591 17.6444V14.3549C-0.00340843 13.1878 0.00795887 12.0208 0.03498 10.8541L0.0458294 10.5437C0.0582288 10.1838 0.0737279 9.83016 0.092327 9.40457C0.169823 7.70061 0.43021 6.54064 0.81304 5.51987C1.20315 4.45141 1.81464 3.48381 2.60475 2.68474C3.3784 1.87123 4.3146 1.24169 5.34811 0.83998C6.33696 0.444789 7.46065 0.175996 9.11132 0.0959976C9.5236 0.0767981 9.86768 0.0607985 10.2149 0.0479988L10.5156 0.038399C11.6457 0.00997209 12.7763 -0.00229546 13.9068 0.00159985L17.0934 0ZM15.5001 7.99981C13.4448 7.99981 11.4736 8.84264 10.0203 10.3429C8.56697 11.8432 7.75049 13.8779 7.75049 15.9996C7.75049 18.1213 8.56697 20.1561 10.0203 21.6563C11.4736 23.1566 13.4448 23.9994 15.5001 23.9994C17.5554 23.9994 19.5266 23.1566 20.9799 21.6563C22.4332 20.1561 23.2497 18.1213 23.2497 15.9996C23.2497 13.8779 22.4332 11.8432 20.9799 10.3429C19.5266 8.84264 17.5554 7.99981 15.5001 7.99981ZM15.5001 11.1997C16.1107 11.1996 16.7154 11.3237 17.2795 11.5648C17.8437 11.8059 18.3564 12.1594 18.7882 12.605C19.22 13.0507 19.5626 13.5797 19.7964 14.162C20.0302 14.7443 20.1505 15.3685 20.1506 15.9988C20.1507 16.6291 20.0306 17.2533 19.797 17.8357C19.5634 18.4181 19.221 18.9473 18.7893 19.3931C18.3576 19.8389 17.8451 20.1925 17.281 20.4338C16.7169 20.6751 16.1123 20.7994 15.5016 20.7995C14.2685 20.7995 13.0858 20.2938 12.2138 19.3936C11.3418 18.4935 10.8519 17.2726 10.8519 15.9996C10.8519 14.7266 11.3418 13.5057 12.2138 12.6056C13.0858 11.7054 14.2685 11.1997 15.5016 11.1997M23.6387 5.59986C23.1249 5.59986 22.6321 5.81057 22.2688 6.18564C21.9055 6.5607 21.7013 7.0694 21.7013 7.59982C21.7013 8.13024 21.9055 8.63893 22.2688 9.014C22.6321 9.38906 23.1249 9.59977 23.6387 9.59977C24.1526 9.59977 24.6454 9.38906 25.0087 9.014C25.372 8.63893 25.5761 8.13024 25.5761 7.59982C25.5761 7.0694 25.372 6.5607 25.0087 6.18564C24.6454 5.81057 24.1526 5.59986 23.6387 5.59986Z" fill="url(#paint0_linear_841_3695)"/>
<defs>
<linearGradient id="paint0_linear_841_3695" x1="0" y1="16" x2="31" y2="16" gradientUnits="userSpaceOnUse">
<stop stop-color="#7E3F98"/>
<stop offset="1" stop-color="#BC266D"/>
</linearGradient>
</defs>
</svg>
