<svg width="32" height="32" viewBox="0 0 32 32" fill="none" xmlns="http://www.w3.org/2000/svg">
<path fill-rule="evenodd" clip-rule="evenodd" d="M15.9953 5.39668e-06C24.7234 -0.00724198 32 7.28603 32 15.9998C32 24.7208 24.7234 31.9923 15.9953 31.9875C13.7013 31.9917 11.4334 31.5006 9.34653 30.5477L1.42506 31.9802C1.21479 32.0188 0.998059 32.0008 0.79702 31.9281C0.595982 31.8554 0.417839 31.7306 0.280793 31.5665C0.143747 31.4024 0.05271 31.2048 0.0169835 30.994C-0.018743 30.7831 0.00212162 30.5666 0.0774456 30.3665L2.34762 24.3318C0.817839 21.821 0.0074438 18.9378 0.00499317 15.9974C0.00740825 7.28361 7.2768 0.00483698 15.9953 5.39668e-06ZM24.0254 22.7954C22.2455 24.2352 19.4899 25.6895 16.855 23.9985C13.4015 21.7784 10.344 18.8625 8.12691 15.4055C6.82518 13.3811 8.04963 10.1391 9.88026 8.16296C10.6096 7.373 11.8123 7.49862 12.6069 8.22336L14.2781 9.75014C14.7853 10.214 14.8046 11.0208 14.4882 11.6345C13.9883 12.5959 13.6937 13.8884 14.3119 14.8523C15.0896 16.0602 16.046 17.2512 18.3306 17.9445C19.0213 18.1571 19.9077 18.0653 20.6612 17.7609C21.2915 17.5048 22.0909 17.5072 22.557 18.0049L24.1123 19.6597C24.9697 20.5729 24.9987 22.0079 24.0254 22.7954Z" fill="url(#paint0_linear_841_3694)"/>
<defs>
<linearGradient id="paint0_linear_841_3694" x1="0" y1="16" x2="32" y2="16" gradientUnits="userSpaceOnUse">
<stop stop-color="#7E3F98"/>
<stop offset="1" stop-color="#BC266D"/>
</linearGradient>
</defs>
</svg>
