<svg width="29" height="30" viewBox="0 0 29 30" fill="none" xmlns="http://www.w3.org/2000/svg">
<path d="M4.28571 0.125C1.92188 0.125 0 2.03086 0 4.375V25.625C0 27.9691 1.92188 29.875 4.28571 29.875H25.7143C28.0781 29.875 30 27.9691 30 25.625V4.375C30 2.03086 28.0781 0.125 25.7143 0.125H4.28571ZM24.1808 5.70312L17.2299 13.5789L25.4062 24.2969H19.0045L13.9955 17.7957L8.2567 24.2969H5.07589L12.5089 15.8699L4.66741 5.70312H11.2299L15.7634 11.6465L21 5.70312H24.1808ZM21.6496 22.4109L10.2723 7.48945H8.37723L19.8817 22.4109H21.6429H21.6496Z" fill="url(#paint0_linear_841_3699)"/>
<defs>
<linearGradient id="paint0_linear_841_3699" x1="0" y1="15" x2="30" y2="15" gradientUnits="userSpaceOnUse">
<stop stop-color="#7E3F98"/>
<stop offset="1" stop-color="#BC266D"/>
</linearGradient>
</defs>
</svg>
